<?xml version="1.0" standalone="no"?>
<!DOCTYPE svg PUBLIC "-//W3C//DTD SVG 20010904//EN"
 "http://www.w3.org/TR/2001/REC-SVG-20010904/DTD/svg10.dtd">
<svg version="1.0" xmlns="http://www.w3.org/2000/svg"
 width="16.000000pt" height="16.000000pt" viewBox="0 0 16.000000 16.000000"
 preserveAspectRatio="xMidYMid meet">
<metadata>
Created by potrace 1.11, written by Peter Selinger 2001-2013
</metadata>
<g transform="translate(0.000000,16.000000) scale(0.001770,-0.001770)"
fill="#000000" stroke="none">
<path d="M1599 9032 l-36 -3 1 -3532 1 -3532 1022 -3 1021 -2 1 104 1 104
-892 1 c-491 0 -907 0 -924 1 l-31 0 0 3328 0 3327 2786 -1 c1532 -1 2791 -2
2796 -3 10 -1 15 -6640 5 -6642 -3 -1 -655 -2 -1450 -3 l-1445 -1 -3 -102 c-2
-79 0 -103 10 -104 7 0 705 -1 1551 -2 l1537 -2 1 50 c0 78 1 6988 0 7005 -1
13 -337 15 -2959 15 -1626 0 -2973 -1 -2993 -3z"/>
<path d="M4720 7866 l-795 -532 0 -327 0 -326 -270 -193 c-148 -106 -282 -202
-297 -213 l-27 -20 0 -1886 -1 -1886 290 0 c160 0 293 -3 296 -6 3 -3 7 -183
9 -399 1 -216 3 -395 4 -398 0 -3 45 -5 99 -5 l97 0 3 403 2 402 38 1 c20 0
519 1 1107 2 l1070 2 1 93 c0 51 -4 96 -10 99 -5 4 -498 6 -1095 6 -597 -1
-1093 1 -1101 3 -13 3 -15 228 -15 1945 l0 1942 42 31 c69 52 94 70 122 88
l26 17 0 -1900 c0 -1046 3 -1903 7 -1905 6 -4 1141 -8 1196 -5 9 1 12 558 12
2751 0 1513 -3 2750 -7 2749 -5 -1 -366 -240 -803 -533z m606 -4764 c-4 -3
-613 -6 -771 -3 l-40 1 1 1993 c0 1095 -1 1995 -3 1999 -2 4 -88 -53 -191
-127 -103 -74 -189 -135 -192 -135 -3 0 -5 88 -5 196 l0 196 600 400 600 401
3 -2458 c1 -1352 0 -2460 -2 -2463z m-1401 1449 l0 -1868 -195 1 -195 1 0
1734 0 1734 190 137 c105 75 192 135 195 132 3 -2 5 -844 5 -1871z"/>
<path d="M2218 1260 c-146 -25 -274 -87 -364 -175 -127 -126 -182 -276 -177
-486 7 -310 205 -544 493 -583 57 -8 255 -8 295 -1 96 18 207 48 218 59 9 10
12 85 12 307 l0 294 -210 0 -210 0 0 -72 -1 -73 123 0 123 0 0 -174 0 -174
-27 -7 c-23 -5 -114 -16 -163 -19 -54 -3 -161 19 -216 44 -109 49 -205 162
-230 270 -4 19 -9 42 -11 50 -2 8 -5 53 -7 99 -9 237 97 402 302 471 108 36
286 31 395 -10 28 -11 52 -19 53 -17 8 8 43 141 39 147 -3 4 -42 18 -87 30
-89 24 -266 34 -350 20z"/>
<path d="M990 1240 c-4 -8 -35 -96 -68 -195 -33 -99 -124 -366 -201 -594 -78
-228 -141 -418 -141 -423 0 -4 40 -8 89 -8 87 0 89 0 99 28 6 15 34 99 63 187
29 88 54 162 55 164 6 7 406 3 414 -5 4 -5 17 -40 30 -79 12 -38 30 -92 40
-120 10 -27 28 -78 41 -112 l21 -63 94 0 c52 0 94 2 94 3 0 2 -9 30 -21 63
-33 94 -296 865 -346 1014 -25 74 -49 139 -55 145 -5 5 -52 10 -104 10 -76 0
-97 -3 -104 -15z m205 -506 c32 -93 60 -173 62 -179 2 -6 -56 -10 -162 -10
-91 0 -165 2 -165 5 0 3 34 108 75 232 41 125 75 235 75 246 0 47 16 26 36
-46 11 -44 47 -155 79 -248z"/>
<path d="M2910 638 l0 -618 354 0 353 0 1 75 1 75 -265 0 -264 0 0 210 0 210
235 0 235 0 0 75 0 75 -235 0 -235 0 0 180 0 180 33 1 c17 0 130 1 250 1 l217
0 0 77 0 76 -340 0 -340 0 0 -617z"/>
<path d="M3806 1252 c-2 -4 -4 -283 -4 -619 0 -563 1 -613 17 -614 9 -1 45 -1
81 -2 l65 0 0 486 c0 268 1 487 2 487 0 0 24 -43 52 -95 28 -52 79 -141 113
-198 110 -182 410 -662 418 -671 7 -7 86 -10 162 -7 15 1 17 47 17 621 l0 619
-82 -2 -82 -2 0 -476 0 -476 -56 107 c-50 94 -185 318 -313 519 -23 36 -77
123 -122 195 l-80 131 -92 2 c-50 1 -93 -1 -96 -5z"/>
<path d="M4849 1238 c0 -10 -1 -31 -1 -48 0 -16 1 -43 1 -59 l1 -30 163 0 c89
0 171 0 183 0 l21 -1 1 -517 c0 -285 1 -528 1 -540 1 -22 5 -23 89 -23 l89 0
0 535 c0 295 3 538 6 541 3 4 86 7 184 8 l178 1 0 75 0 75 -457 0 c-430 0
-458 -1 -459 -17z"/>
<path d="M7250 1209 c-328 -70 -530 -356 -515 -729 11 -285 157 -463 391 -477
259 -17 440 171 429 445 -8 213 -151 362 -349 364 -108 1 -183 -24 -250 -83
l-35 -30 11 38 c53 193 216 318 444 341 l68 7 -1 60 c-1 33 -1 66 -2 73 -1 18
-82 14 -191 -9z m14 -569 c71 -46 105 -108 110 -206 10 -170 -80 -289 -220
-288 -79 1 -137 32 -181 97 -38 56 -51 99 -59 182 -7 69 6 110 52 164 69 82
211 106 298 51z"/>
<path d="M7955 1217 c-154 -52 -234 -144 -243 -285 -7 -113 32 -191 131 -263
l38 -28 -38 -20 c-57 -29 -123 -98 -151 -161 -55 -118 -25 -270 68 -354 103
-93 283 -130 439 -90 161 42 272 170 274 316 3 143 -49 225 -198 313 -16 10
-12 15 32 48 188 138 162 407 -49 503 -54 24 -78 29 -163 31 -64 2 -115 -2
-140 -10z m212 -141 c91 -46 120 -173 60 -261 -32 -48 -101 -95 -137 -95 -42
0 -147 58 -177 97 -54 70 -39 185 32 239 58 44 158 54 222 20z m-27 -532 c104
-47 154 -117 153 -215 -1 -80 -40 -135 -118 -170 -95 -42 -215 -21 -275 48
-40 46 -51 76 -51 141 0 97 66 184 166 220 35 12 50 9 125 -24z"/>
<path d="M6225 1210 c-22 -3 -65 -18 -95 -34 -103 -54 -185 -99 -192 -105 -8
-7 19 -119 31 -133 4 -4 50 17 104 46 l97 54 0 -111 c1 -62 1 -291 1 -509 l0
-398 87 0 87 0 0 594 0 594 -40 4 c-22 2 -58 1 -80 -2z"/>
</g>
</svg>
